<svg width="93" height="130" viewBox="0 0 93 130" fill="none" xmlns="http://www.w3.org/2000/svg">
  <path d="M11.2764 48.503C11.5474 48.4489 11.1679 44.6363 11.1137 44.0144C10.7342 39.9044 10.9782 26.0871 18.4323 16.1364C25.4798 6.69956 37.9756 2.15689 49.1432 2.7788C68.307 3.86039 80.5046 20.0302 83.8115 30.6027C85.3836 35.6591 85.492 40.8778 85.492 40.8778C85.5734 43.3925 85.3836 45.3934 85.2481 46.4209C84.4891 52.9375 82.2393 57.0476 82.3749 57.1016C82.5646 57.1828 87.281 50.4228 88.04 40.7967C88.0942 39.9855 88.555 35.1183 87.1184 29.8456C84.6246 20.7602 73.2402 3.83335 53.6969 0.561542C49.3871 -0.168531 41.8788 -0.682286 33.5573 2.31913C28.7054 4.07671 17.1583 9.40354 11.8185 22.0041C11.8185 22.0041 7.67128 31.7654 10.4632 45.8531C10.5987 46.5291 11.0595 48.53 11.2764 48.503Z" fill="url(#paint0_radial_352_58)"/>
  <path d="M46.4051 8.56494C50.0373 8.56494 56.7053 8.56494 63.5088 11.4312C58.5214 8.70014 52.7749 7.13184 46.649 7.13184C39.7913 7.13184 33.4214 9.13278 28.0273 12.5127C35.373 8.70014 42.5289 8.56494 46.4051 8.56494Z" fill="#3A3A3A"/>
  <path d="M33.9094 71.081C33.7738 74.3258 33.7196 77.165 33.7196 79.4633C28.949 77.6517 23.6905 74.7043 19.0554 69.7561C6.42408 56.2903 8.34859 38.417 9.18887 30.8189C9.83941 24.6808 11.4929 20.4626 12.0892 19.0025C12.0892 19.0025 15.2877 11.2962 21.6575 5.02295C8.64675 13.2971 0 27.7363 0 44.2306C0 68.4582 18.6759 88.2513 42.4206 90.3333V81.8969V64.8348C39.5745 66.9169 36.7284 68.999 33.8822 71.1081L33.9094 71.081Z" fill="url(#paint1_linear_352_58)"/>
  <path d="M91.2111 31.4946C90.7775 30.6835 90.3166 30.0345 90.0185 29.6289C90.3438 32.1706 90.6148 35.7399 90.3166 39.9851C89.7474 47.9889 87.4976 53.9106 86.4405 56.3712C84.1636 61.7521 81.5344 65.3754 80.8838 66.2407C78.5527 69.3773 73.8092 75.6235 65.3251 79.4361C64.7017 79.7065 64.1053 79.9228 63.509 80.1391C63.509 79.3009 63.509 78.4356 63.509 77.5974V68.485C60.3376 64.4561 57.1392 60.4542 53.9678 56.4253V82.3294V89.8734C76.059 86.2772 92.973 67.2412 92.973 44.1763C92.973 36.497 91.2111 31.4676 91.2111 31.4676V31.4946Z" fill="url(#paint2_linear_352_58)"/>
  <path d="M52.748 27.7904V22.5988C52.748 22.5988 52.6667 22.4365 52.5854 22.4365C52.5041 22.4365 52.4228 22.5176 52.4228 22.5988V28.0337L44.1826 34.2529V71.3514C44.1826 77.7057 44.1826 84.0601 44.1826 90.4415C44.9416 90.5226 45.7548 90.5767 46.595 90.6037C48.8448 90.6578 50.9049 90.4955 52.6938 90.2522C52.6938 83.9519 52.6938 77.6787 52.6938 71.3784V28.872V29.0613C55.2418 31.1163 57.7897 33.1983 60.3648 35.2534C60.4461 36.6865 60.5274 38.1196 60.6087 39.5797C60.6901 37.8221 60.7443 36.0375 60.8256 34.2799L52.6938 27.8174L52.748 27.7904Z" fill="url(#paint3_linear_352_58)"/>
  <path d="M20.1249 104.614V96.4543H22.2729L24.3369 101.722L24.6369 102.742L24.9489 101.722L27.0009 96.4543H29.0889V104.614H27.4809L27.5409 98.2783L26.9409 100.162L25.1889 104.614H24.0249L22.2609 100.138L21.6729 98.3023L21.7449 104.614H20.1249ZM34.6072 100.294H33.0592C33.2632 98.8663 34.3072 98.0023 35.9272 98.0023C37.7152 98.0023 38.6272 99.0583 38.6272 100.546V103.042C38.6272 103.834 38.6992 104.278 38.8192 104.614H37.2232C37.1392 104.398 37.1032 104.086 37.0912 103.738C36.5632 104.482 35.7712 104.794 35.0032 104.794C33.7432 104.794 32.8432 104.17 32.8432 102.934C32.8432 102.058 33.3352 101.398 34.3192 101.074C35.1712 100.786 35.9992 100.714 37.0792 100.702V100.546C37.0792 99.7183 36.6832 99.2743 35.8312 99.2743C35.0992 99.2743 34.7032 99.6823 34.6072 100.294ZM34.3912 102.85C34.3912 103.342 34.7752 103.654 35.3992 103.654C36.3472 103.654 37.0792 102.886 37.0792 101.926V101.65C34.8952 101.686 34.3912 102.202 34.3912 102.85ZM42.6118 104.614V98.1823H44.1478V99.1183C44.5678 98.3503 45.2158 98.0023 45.9118 98.0023C46.1758 98.0023 46.4158 98.0743 46.5358 98.1823V99.5143C46.3318 99.4543 46.1038 99.4303 45.8278 99.4303C44.6638 99.4303 44.1478 100.126 44.1478 101.194V104.614H42.6118ZM49.8662 97.4623V95.9743H51.4022V97.4623H49.8662ZM49.8662 104.614V98.1823H51.4022V104.614H49.8662ZM55.3276 104.614V98.1823H56.8636V99.0463C57.2836 98.3503 57.9556 98.0023 58.7716 98.0023C60.0556 98.0023 60.9316 98.7703 60.9316 100.33V104.614H59.3956V100.642C59.3956 99.7663 59.0236 99.2743 58.2436 99.2743C57.3916 99.2743 56.8636 100.018 56.8636 100.882V104.614H55.3276ZM66.3551 100.294H64.8071C65.0111 98.8663 66.0551 98.0023 67.6751 98.0023C69.4631 98.0023 70.3751 99.0583 70.3751 100.546V103.042C70.3751 103.834 70.4471 104.278 70.5671 104.614H68.9711C68.8871 104.398 68.8511 104.086 68.8391 103.738C68.3111 104.482 67.5191 104.794 66.7511 104.794C65.4911 104.794 64.5911 104.17 64.5911 102.934C64.5911 102.058 65.0831 101.398 66.0671 101.074C66.9191 100.786 67.7471 100.714 68.8271 100.702V100.546C68.8271 99.7183 68.4311 99.2743 67.5791 99.2743C66.8471 99.2743 66.4511 99.6823 66.3551 100.294ZM66.1391 102.85C66.1391 103.342 66.5231 103.654 67.1471 103.654C68.0951 103.654 68.8271 102.886 68.8271 101.926V101.65C66.6431 101.686 66.1391 102.202 66.1391 102.85ZM27.7512 109.974H26.0592C25.8072 109.086 25.1232 108.618 24.2112 108.618C22.8432 108.618 22.0512 109.734 22.0512 111.546C22.0512 113.37 22.8312 114.45 24.2112 114.45C25.0752 114.45 25.7592 114.006 26.0352 113.154H27.7392C27.3072 114.858 25.9032 115.794 24.2352 115.794C21.8472 115.794 20.3952 114.186 20.3952 111.546C20.3952 108.918 21.8712 107.274 24.2592 107.274C25.9512 107.274 27.3792 108.198 27.7512 109.974ZM31.6561 115.794C29.7481 115.794 28.5721 114.51 28.5721 112.41C28.5721 110.226 29.7841 109.002 31.6561 109.002C33.5521 109.002 34.7281 110.298 34.7281 112.41C34.7281 114.57 33.5161 115.794 31.6561 115.794ZM31.6561 114.522C32.6281 114.522 33.1441 113.778 33.1441 112.41C33.1441 111.042 32.6161 110.274 31.6561 110.274C30.6721 110.274 30.1561 111.03 30.1561 112.41C30.1561 113.766 30.6841 114.522 31.6561 114.522ZM35.8447 115.614V109.182H37.3807V110.01C37.7887 109.338 38.4127 109.002 39.1687 109.002C39.9847 109.002 40.6207 109.362 40.9447 110.094C41.3767 109.362 42.0607 109.002 42.8887 109.002C44.1247 109.002 44.9647 109.77 44.9647 111.33V115.614H43.4287V111.642C43.4287 110.766 43.1047 110.274 42.4207 110.274C41.6527 110.274 41.1727 111.018 41.1727 111.882V115.614H39.6367V111.642C39.6367 110.766 39.3127 110.274 38.6287 110.274C37.8607 110.274 37.3807 111.018 37.3807 111.882V115.614H35.8447ZM47.9159 118.254H46.3799V109.182H47.9159V109.914C48.3239 109.326 48.8999 109.002 49.6079 109.002C51.2879 109.002 52.3199 110.286 52.3199 112.386C52.3199 114.57 51.2639 115.794 49.6079 115.794C48.8999 115.794 48.3119 115.494 47.9159 114.918V118.254ZM49.3319 110.274C48.4079 110.274 47.9159 111.018 47.9159 112.386C47.9159 113.754 48.4319 114.522 49.3319 114.522C50.2439 114.522 50.7359 113.766 50.7359 112.386C50.7359 111.03 50.2319 110.274 49.3319 110.274ZM54.9226 111.294H53.3746C53.5786 109.866 54.6226 109.002 56.2426 109.002C58.0306 109.002 58.9426 110.058 58.9426 111.546V114.042C58.9426 114.834 59.0146 115.278 59.1346 115.614H57.5386C57.4546 115.398 57.4186 115.086 57.4066 114.738C56.8786 115.482 56.0866 115.794 55.3186 115.794C54.0586 115.794 53.1586 115.17 53.1586 113.934C53.1586 113.058 53.6506 112.398 54.6346 112.074C55.4866 111.786 56.3146 111.714 57.3946 111.702V111.546C57.3946 110.718 56.9986 110.274 56.1466 110.274C55.4146 110.274 55.0186 110.682 54.9226 111.294ZM54.7066 113.85C54.7066 114.342 55.0906 114.654 55.7146 114.654C56.6626 114.654 57.3946 113.886 57.3946 112.926V112.65C55.2106 112.686 54.7066 113.202 54.7066 113.85ZM60.4072 115.614V109.182H61.9432V110.046C62.3632 109.35 63.0352 109.002 63.8512 109.002C65.1352 109.002 66.0112 109.77 66.0112 111.33V115.614H64.4752V111.642C64.4752 110.766 64.1032 110.274 63.3232 110.274C62.4712 110.274 61.9432 111.018 61.9432 111.882V115.614H60.4072ZM67.8052 118.434C67.4932 118.434 67.1692 118.35 67.0132 118.29V117.114H67.3732C68.0692 117.114 68.3932 116.97 68.8852 115.746L69.0412 115.35L66.5092 109.182H68.1532L69.5812 112.914L69.8452 113.85L70.1092 112.914L71.4772 109.182H73.0492L70.2172 116.25C69.5572 117.918 68.9812 118.434 67.8052 118.434Z" fill="#6C748A"/>
  <defs>
  <radialGradient id="paint0_radial_352_58" cx="0" cy="0" r="1" gradientUnits="userSpaceOnUse" gradientTransform="translate(48.845 28.5477) scale(34.3973 34.3134)">
  <stop offset="0.06" stop-color="#F2BFA0"/>
  <stop offset="1" stop-color="#FFC67F"/>
  </radialGradient>
  <linearGradient id="paint1_linear_352_58" x1="0" y1="47.6917" x2="42.4206" y2="47.6917" gradientUnits="userSpaceOnUse">
  <stop offset="0.06" stop-color="#75758C"/>
  <stop offset="1" stop-color="#BAB0B5"/>
  </linearGradient>
  <linearGradient id="paint2_linear_352_58" x1="58.3318" y1="67.3223" x2="93.4832" y2="50.491" gradientUnits="userSpaceOnUse">
  <stop offset="0.06" stop-color="#76758E"/>
  <stop offset="1" stop-color="#BCB1B7"/>
  </linearGradient>
  <linearGradient id="paint3_linear_352_58" x1="46.595" y1="76.9486" x2="52.0443" y2="39.4407" gradientUnits="userSpaceOnUse">
  <stop offset="0.06" stop-color="#75758C"/>
  <stop offset="1" stop-color="#BAB0B5"/>
  </linearGradient>
  </defs>
  </svg>