<?xml version="1.0" encoding="UTF-8"?>
<svg id="Layer_2" data-name="Layer 2" xmlns="http://www.w3.org/2000/svg" xmlns:xlink="http://www.w3.org/1999/xlink" viewBox="0 0 34.31 42.53">
  <defs>
    <style>
      .cls-1 {
        fill: url(#linear-gradient-2);
      }

      .cls-2 {
        fill: #6c748a;
        font-family: Switzer-Semibold, Switzer;
        font-size: 3.72px;
        font-weight: 600;
      }

      .cls-3 {
        fill: url(#radial-gradient);
      }

      .cls-4 {
        fill: #3a3a3a;
      }

      .cls-5 {
        fill: url(#linear-gradient-3);
      }

      .cls-6 {
        fill: url(#linear-gradient);
      }
    </style>
    <radialGradient id="radial-gradient" cx="18.02" cy="10.56" fx="7.19" fy="3.94" r="12.69" gradientUnits="userSpaceOnUse">
      <stop offset=".06" stop-color="#f2bfa0"/>
      <stop offset="1" stop-color="#ffc67f"/>
    </radialGradient>
    <linearGradient id="linear-gradient" x1="0" y1="17.64" x2="15.65" y2="17.64" gradientUnits="userSpaceOnUse">
      <stop offset=".06" stop-color="#75758c"/>
      <stop offset="1" stop-color="#bab0b5"/>
    </linearGradient>
    <linearGradient id="linear-gradient-2" x1="21.52" y1="24.9" x2="34.5" y2="18.7" gradientUnits="userSpaceOnUse">
      <stop offset=".06" stop-color="#76758e"/>
      <stop offset="1" stop-color="#bcb1b7"/>
    </linearGradient>
    <linearGradient id="linear-gradient-3" x1="17.19" y1="28.46" x2="19.21" y2="14.59" xlink:href="#linear-gradient"/>
  </defs>
  <g id="Layer_1-2" data-name="Layer 1">
    <g>
      <g>
        <path class="cls-3" d="M4.16,17.94c.1-.02-.04-1.43-.06-1.66-.14-1.52-.05-6.63,2.7-10.31C9.4,2.48,14.01,.8,18.13,1.03c7.07,.4,11.57,6.38,12.79,10.29,.58,1.87,.62,3.8,.62,3.8,.03,.93-.04,1.67-.09,2.05-.28,2.41-1.11,3.93-1.06,3.95,.07,.03,1.81-2.47,2.09-6.03,.02-.3,.19-2.1-.34-4.05C31.22,7.68,27.02,1.42,19.81,.21c-1.59-.27-4.36-.46-7.43,.65-1.79,.65-6.05,2.62-8.02,7.28,0,0-1.53,3.61-.5,8.82,.05,.25,.22,.99,.3,.98Z"/>
        <path class="cls-4" d="M17.12,3.17c1.34,0,3.8,0,6.31,1.06-1.84-1.01-3.96-1.59-6.22-1.59-2.53,0-4.88,.74-6.87,1.99,2.71-1.41,5.35-1.46,6.78-1.46Z"/>
        <path class="cls-6" d="M12.51,26.29c-.05,1.2-.07,2.25-.07,3.1-1.76-.67-3.7-1.76-5.41-3.59-4.66-4.98-3.95-11.59-3.64-14.4,.24-2.27,.85-3.83,1.07-4.37,0,0,1.18-2.85,3.53-5.17C3.19,4.92,0,10.26,0,16.36c0,8.96,6.89,16.28,15.65,17.05v-3.12h0v-6.31c-1.05,.77-2.1,1.54-3.15,2.32Z"/>
        <path class="cls-1" d="M33.65,11.65c-.16-.3-.33-.54-.44-.69,.12,.94,.22,2.26,.11,3.83-.21,2.96-1.04,5.15-1.43,6.06-.84,1.99-1.81,3.33-2.05,3.65-.86,1.16-2.61,3.47-5.74,4.88-.23,.1-.45,.18-.67,.26,0-.31,0-.63,0-.94v-3.37c-1.17-1.49-2.35-2.97-3.52-4.46v9.58s0,0,0,0v2.79c8.15-1.33,14.39-8.37,14.39-16.9,0-2.84-.65-4.7-.65-4.7Z"/>
        <path class="cls-5" d="M19.46,10.28v-1.92s-.03-.06-.06-.06-.06,.03-.06,.06v2.01l-3.04,2.3v13.72c0,2.35,0,4.7,0,7.06,.28,.03,.58,.05,.89,.06,.83,.02,1.59-.04,2.25-.13,0-2.33,0-4.65,0-6.98V10.68s0,0,0,0v.07c.94,.76,1.88,1.53,2.83,2.29,.03,.53,.06,1.06,.09,1.6,.03-.65,.05-1.31,.08-1.96l-3-2.39Z"/>
      </g>
      <text class="cls-2" transform="translate(9.81 38.15)"><tspan x="0" y="0">Marina </tspan><tspan x="-.05" y="3.5">Company</tspan></text>
    </g>
  </g>
</svg>